<?xml version="1.0" encoding="utf-8"?><svg viewBox="0 0 47 40" xmlns="http://www.w3.org/2000/svg" xmlns:xlink="http://www.w3.org/1999/xlink"><style>:root>svg{display:none}:root>svg:target{display:block}</style><svg fill="none" viewBox="0 0 40 40" id="Group_9" xmlns="http://www.w3.org/2000/svg"><path d="M0 0h40v40H0V0Z" fill="#fff"/><path d="M10 10h9.5a9.5 9.5 0 0 1 0 19H10V10Z" fill="#6257FE"/></svg><svg fill="none" viewBox="0 0 20 24" id="addres" xmlns="http://www.w3.org/2000/svg"><path d="M19 10c0 7-9 13-9 13s-9-6-9-13a9 9 0 1 1 18 0Z" stroke="#fff" stroke-width="2" stroke-linecap="round" stroke-linejoin="round"/><path d="M10 13a3 3 0 1 0 0-6 3 3 0 0 0 0 6Z" stroke="#fff" stroke-width="2" stroke-linecap="round" stroke-linejoin="round"/></svg><svg fill="none" viewBox="0 0 24 24" id="chevron-up" xmlns="http://www.w3.org/2000/svg"><path fill-rule="evenodd" clip-rule="evenodd" d="M11.293 8.293a1 1 0 0 1 1.414 0l6 6a1 1 0 0 1-1.414 1.414L12 10.414l-5.293 5.293a1 1 0 0 1-1.414-1.414l6-6Z" fill="#fff"/></svg><svg fill="none" viewBox="0 0 22 18" id="email" xmlns="http://www.w3.org/2000/svg"><path d="M3 1h16c1.1 0 2 .9 2 2v12c0 1.1-.9 2-2 2H3c-1.1 0-2-.9-2-2V3c0-1.1.9-2 2-2Z" stroke="#fff" stroke-width="2" stroke-linecap="round" stroke-linejoin="round"/><path d="m21 3-10 7L1 3" stroke="#fff" stroke-width="2" stroke-linecap="round" stroke-linejoin="round"/></svg><svg fill="none" viewBox="0 0 21 21" id="facebook" xmlns="http://www.w3.org/2000/svg"><g clip-path="url(#da)"><path fill-rule="evenodd" clip-rule="evenodd" d="M10.46 21h.01-.01Zm.074 0h-.003.01-.007Zm-.106 0h.01-.01Zm.14 0h-.006.01-.004Zm-.171 0h.007-.007Zm.205 0h-.006.007-.001Zm.034 0h-.003.01-.007Zm-.278 0h.009H10.358Zm.311-.001h-.005.011-.006Zm-.344 0h.011-.011Zm.378 0h-.007l.01-.001h-.003Zm-.41-.001h.011-.01Zm-.038 0h.01-.01Zm.482 0h-.002.01-.008Zm-.515-.002h.012-.012Zm.549 0h-.005.012-.007Zm.034 0h-.009.013-.004Zm-.614 0h.013-.013Zm.681-.002h-.005.014-.009Zm-.754 0h.015-.015Zm-.03-.002h.015-.015Zm.818 0h-.009.015-.006Zm-.848-.001h.014H10.058Zm.881 0h-.011.014-.003Zm-.924-.002h.016-.016Zm.958 0h-.004.016-.012Zm-.988-.001h.016-.016Zm1.021 0H11h.016-.009Zm-1.05-.002h.015-.016Zm1.084 0h-.011.016-.005Zm.034-.001h-.015.013l.015-.001h-.014Zm-1.146 0h.013-.015l-.013-.001h.015Zm1.179-.002H11.1h.017-.01Zm-1.224 0H9.9h-.017Zm-.03-.003.017.001h-.017Zm1.287 0-.01.001h.017-.007Zm-1.315-.001h.015-.014l-.014-.001h.013Zm1.349 0h-.014.015l.013-.001h-.014Zm.033-.002h-.005l.016-.001h-.01Zm-1.425-.001h.016-.016Zm-.03-.002h.016-.016Zm1.489 0h-.009.016-.007Zm-1.518-.002h.014H9.723Zm1.551 0h-.011.014-.003Zm-1.59-.003h.012H9.683Zm1.623 0h-.003.013-.01Zm.034-.002h-.006.012-.006Zm-1.688 0h.012-.012Zm-.03-.003h.01-.01Zm1.751 0h-.008.011-.003Zm.066-.006h-.002.007-.005Zm-1.885 0h.008-.008Zm-.03-.003h.005-.006Zm1.948 0h-.003.006-.003Zm-2.614-.083C3.842 20.084 0 15.737 0 10.5 0 4.705 4.705 0 10.5 0S21 4.705 21 10.5c0 5.237-3.842 9.584-8.86 10.372v-7.337h2.447l.466-3.035H12.14V8.53c0-.83.406-1.64 1.71-1.64h1.325V4.308s-1.202-.205-2.35-.205c-2.399 0-3.967 1.453-3.967 4.085V10.5H6.193v3.035H8.86v7.337Z" fill="#fff"/></g><defs><clipPath id="da"><path fill="#fff" d="M0 0h21v21H0z"/></clipPath></defs></svg><svg fill="none" viewBox="0 0 40 40" id="heart" xmlns="http://www.w3.org/2000/svg"><path d="M34.733 7.683a9.165 9.165 0 0 0-12.966 0L20 9.45l-1.767-1.767A9.169 9.169 0 1 0 5.267 20.65l1.766 1.767L20 35.383l12.967-12.966 1.766-1.767a9.166 9.166 0 0 0 0-12.967v0Z" stroke="#100C46" stroke-width="2" stroke-linecap="round" stroke-linejoin="round"/></svg><svg fill="none" viewBox="0 0 21 21" id="instagram" xmlns="http://www.w3.org/2000/svg"><path d="M16.884 5.911a1.144 1.144 0 1 1-2.287 0 1.144 1.144 0 0 1 2.287 0Zm3.632 5.164v.014l-.065 4.146a5.721 5.721 0 0 1-5.657 5.658l-4.16.064h-.015l-4.146-.066a5.722 5.722 0 0 1-5.657-5.656l-.065-4.16v-.015l.066-4.146a5.722 5.722 0 0 1 5.656-5.658l4.16-.064h.016l4.145.066a5.722 5.722 0 0 1 5.658 5.656l.064 4.16Zm-1.84 0-.065-4.133a3.89 3.89 0 0 0-3.845-3.845l-4.132-.064-4.132.064a3.89 3.89 0 0 0-3.846 3.845l-.064 4.133.064 4.132a3.89 3.89 0 0 0 3.846 3.845l4.132.064 4.132-.064a3.89 3.89 0 0 0 3.845-3.845l.065-4.133Zm-2.968 0a5.074 5.074 0 1 1-10.149 0 5.074 5.074 0 0 1 10.15 0Zm-1.84 0a3.233 3.233 0 1 0-6.467 0 3.233 3.233 0 0 0 6.467 0Z" fill="#fff"/></svg><svg fill="none" viewBox="0 0 40 40" id="layout" xmlns="http://www.w3.org/2000/svg"><path d="M31.667 5H8.333A3.333 3.333 0 0 0 5 8.333v23.334A3.333 3.333 0 0 0 8.333 35h23.334A3.333 3.333 0 0 0 35 31.667V8.333A3.333 3.333 0 0 0 31.667 5ZM5 15h30M15 35V15" stroke="#100C46" stroke-width="2" stroke-linecap="round" stroke-linejoin="round"/></svg><svg fill="none" viewBox="0 0 22 22" id="phone" xmlns="http://www.w3.org/2000/svg"><path d="M20.888 15.92v3a2 2 0 0 1-2.18 2 19.791 19.791 0 0 1-8.63-3.07 19.5 19.5 0 0 1-6-6 19.79 19.79 0 0 1-3.07-8.67A2 2 0 0 1 2.998 1h3a2 2 0 0 1 2 1.72c.127.96.362 1.903.7 2.81a2 2 0 0 1-.45 2.11l-1.27 1.27a16 16 0 0 0 6 6l1.27-1.27a2 2 0 0 1 2.11-.45c.907.339 1.85.574 2.81.7a2 2 0 0 1 1.72 2.03Z" stroke="#fff" stroke-width="2" stroke-linecap="round" stroke-linejoin="round"/></svg><svg fill="none" viewBox="0 0 47 40" id="quote" xmlns="http://www.w3.org/2000/svg"><path d="M12.914 22.857c2.402 0 4.304.802 5.706 2.406 1.501 1.504 2.252 3.509 2.252 6.015 0 2.707-.9 4.862-2.703 6.466C16.468 39.248 14.115 40 11.112 40c-3.504 0-6.257-1.353-8.259-4.06C.951 33.233 0 29.373 0 24.36c0-4.51 1.001-8.67 3.003-12.48C5.005 7.97 8.01 4.06 12.013.15c.1-.1.25-.15.45-.15.3 0 .55.15.751.451.2.3.2.551 0 .752C8.31 6.216 5.856 12.13 5.856 18.947c0 2.807.5 4.863 1.502 6.166.9-1.504 2.753-2.256 5.556-2.256Zm26.128 0c2.402 0 4.304.802 5.706 2.406C46.249 26.767 47 28.772 47 31.278c0 2.707-.901 4.862-2.703 6.466C42.595 39.248 40.243 40 37.24 40c-3.504 0-6.257-1.353-8.26-4.06-1.901-2.707-2.852-6.567-2.852-11.58 0-4.51 1-8.67 3.003-12.48 2.002-3.91 5.005-7.82 9.01-11.73.1-.1.25-.15.45-.15.3 0 .55.15.75.451.201.3.201.551 0 .752-4.904 5.013-7.357 10.927-7.357 17.744 0 2.807.5 4.863 1.502 6.166.9-1.504 2.753-2.256 5.556-2.256Z" fill="#fff"/></svg><svg fill="none" viewBox="0 0 40 40" id="search" xmlns="http://www.w3.org/2000/svg"><path d="M18.333 31.667c7.364 0 13.334-5.97 13.334-13.334C31.667 10.97 25.697 5 18.333 5 10.97 5 5 10.97 5 18.333c0 7.364 5.97 13.334 13.333 13.334ZM35 35l-7.25-7.25" stroke="#100C46" stroke-width="2" stroke-linecap="round" stroke-linejoin="round"/></svg><svg fill="none" viewBox="0 0 14 9" id="select-arrow" xmlns="http://www.w3.org/2000/svg"><path d="m7.576 8.488 5.433-5.922a1.054 1.054 0 0 0 0-1.455c-.388-.415-.97-.415-1.358 0L6.8 6.202l-4.85-5.09C1.56.695.98.695.59 1.111a.976.976 0 0 0-.291.727c0 .311.097.52.291.727l5.433 5.922c.485.416 1.067.416 1.552 0-.097 0-.097 0 0 0Z" fill="#AAA"/></svg><svg fill="none" viewBox="0 0 24 20" id="twitor" xmlns="http://www.w3.org/2000/svg"><path d="M24 2.367a9.608 9.608 0 0 1-2.828.795A5.038 5.038 0 0 0 23.337.37c-.951.579-2.005.999-3.127 1.226A4.861 4.861 0 0 0 16.616 0c-2.719 0-4.923 2.26-4.923 5.05 0 .394.043.78.127 1.15C7.728 5.989 4.1 3.98 1.671.924a5.121 5.121 0 0 0-.666 2.54c0 1.75.869 3.296 2.19 4.201a4.817 4.817 0 0 1-2.23-.631v.063c0 2.446 1.696 4.487 3.95 4.951a4.835 4.835 0 0 1-2.225.086c.627 2.006 2.445 3.466 4.6 3.507A9.723 9.723 0 0 1 0 17.73 13.684 13.684 0 0 0 7.548 20c9.057 0 14.01-7.694 14.01-14.366 0-.219-.005-.437-.014-.654.961-.71 1.796-1.6 2.456-2.613Z" fill="#fff"/></svg><svg fill="none" viewBox="0 0 23 20" id="twitter" xmlns="http://www.w3.org/2000/svg"><path d="M22.991 1.95a1 1 0 0 0-1.51-.86 7.48 7.48 0 0 1-1.873.794A5.152 5.152 0 0 0 16.233.642a5.233 5.233 0 0 0-5.223 5.063 11.032 11.032 0 0 1-6.814-3.924 1.011 1.011 0 0 0-.857-.365.998.998 0 0 0-.785.5 5.275 5.275 0 0 0-.242 4.769l-.002.002a1.041 1.041 0 0 0-.496.888c-.001.147.007.294.027.44a5.185 5.185 0 0 0 1.568 3.312.999.999 0 0 0-.066.77 5.204 5.204 0 0 0 2.362 2.921 7.465 7.465 0 0 1-3.59.449A1 1 0 0 0 1.45 17.3a12.942 12.942 0 0 0 7.01 2.061 12.788 12.788 0 0 0 12.465-9.363c.353-1.183.533-2.412.535-3.646l-.001-.2a5.77 5.77 0 0 0 1.532-4.202Zm-3.306 3.212a.995.995 0 0 0-.234.702c.01.165.009.331.009.488a10.826 10.826 0 0 1-.454 3.08 10.685 10.685 0 0 1-10.546 7.93c-.86 0-1.715-.101-2.55-.301a9.48 9.48 0 0 0 2.942-1.564 1.001 1.001 0 0 0-.602-1.786 3.208 3.208 0 0 1-2.214-.935c.15-.028.298-.063.445-.105a1 1 0 0 0-.08-1.944 3.197 3.197 0 0 1-2.25-1.725c.181.025.363.04.545.046a1.021 1.021 0 0 0 .984-.696 1 1 0 0 0-.4-1.137A3.196 3.196 0 0 1 3.86 4.344a13.014 13.014 0 0 0 8.21 3.48 1.02 1.02 0 0 0 .817-.36 1 1 0 0 0 .206-.867 3.164 3.164 0 0 1-.087-.729 3.23 3.23 0 0 1 4.506-2.962c.403.176.766.433 1.065.756a.993.993 0 0 0 .921.298 9.27 9.27 0 0 0 1.212-.322 6.679 6.679 0 0 1-1.026 1.524Z" fill="#F5EFDB"/></svg><svg fill="none" viewBox="0 0 40 40" id="volume" xmlns="http://www.w3.org/2000/svg"><path d="M18.333 8.333 10 15H3.333v10H10l8.333 6.667V8.333ZM31.783 8.217a16.667 16.667 0 0 1 0 23.566M25.9 14.1a8.334 8.334 0 0 1 0 11.783" stroke="#100C46" stroke-width="2" stroke-linecap="round" stroke-linejoin="round"/></svg></svg>